<svg version="1.1" id="Layer_1" xmlns="http://www.w3.org/2000/svg" xmlns:xlink="http://www.w3.org/1999/xlink" x="0px" y="0px"
	 width="100%" viewBox="0 0 1024 1024" enable-background="new 0 0 1024 1024" xml:space="preserve">
<path fill="#000000" opacity="1.000000" stroke="none" 
	d="
M184.467224,359.349335 
	C193.551743,354.036102 201.966873,355.093353 211.302551,358.612701 
	C244.475266,371.118195 277.929016,382.879425 311.305023,394.842438 
	C314.288574,395.911835 315.399689,397.632324 315.390015,400.766449 
	C315.299530,430.098877 316.356995,459.478180 315.046356,488.752777 
	C313.332855,527.025879 298.708313,560.461731 272.283295,588.458435 
	C258.999847,602.531982 244.034668,614.842163 230.124573,628.262756 
	C228.828278,629.513428 227.278168,630.837402 225.613281,631.312866 
	C217.420532,633.652649 209.639847,636.955139 202.037903,640.738464 
	C199.967743,641.768799 198.028397,641.093506 196.405731,639.868774 
	C188.494385,633.897766 179.492950,632.664124 169.919189,633.220276 
	C165.442032,633.480347 160.920914,633.165405 156.428635,632.936279 
	C151.062729,632.662476 146.313919,633.949158 141.919357,637.202515 
	C136.277451,641.379333 133.428146,641.060242 128.443665,635.953430 
	C116.687805,623.909058 104.968483,611.827759 93.349579,599.651428 
	C86.883911,592.875610 87.226379,588.517517 94.117142,582.469421 
	C97.997520,579.063538 101.624428,575.363953 105.567429,572.035889 
	C108.575027,569.497375 108.633095,567.189880 106.584419,563.911987 
	C97.259285,548.991882 90.066231,533.133362 86.165298,515.880981 
	C83.517822,504.172211 81.876877,492.302734 81.757690,480.333649 
	C81.498810,454.336670 81.773727,428.334625 81.571999,402.336639 
	C81.533195,397.334900 83.253693,395.084625 88.058243,393.421997 
	C120.145508,382.318268 152.107330,370.851990 184.467224,359.349335 
M119.928268,550.115295 
	C119.851707,545.122131 119.316719,540.085571 119.783882,535.143799 
	C121.230537,519.840637 126.300697,506.269226 139.640930,497.107635 
	C149.588257,490.276154 161.042145,488.209442 172.681396,486.988647 
	C176.133865,486.626495 178.485764,488.415131 179.420761,492.235382 
	C181.921478,502.453064 186.389862,511.937378 190.446213,521.449707 
	C194.533615,512.424072 194.291992,503.751984 187.809052,495.490906 
	C195.702560,495.490906 202.229599,495.490906 210.081055,495.490906 
	C203.929291,503.995331 202.688293,512.298828 207.222137,521.118469 
	C211.046585,511.560425 214.993530,502.032257 218.649780,492.393799 
	C220.118484,488.522064 222.420624,486.830750 226.567093,487.246979 
	C233.553207,487.948364 240.351608,489.481689 246.996292,491.651611 
	C263.809723,497.142487 277.665558,515.555908 278.340210,533.109863 
	C278.432617,535.513977 277.648834,538.395569 281.052307,539.278748 
	C284.693207,540.223572 284.777863,536.729980 286.121887,534.919006 
	C286.897797,533.873535 287.277740,532.530396 287.814362,531.311768 
	C295.312653,514.283447 298.082520,496.218872 298.513245,477.859772 
	C299.009583,456.704926 298.505920,435.528229 298.722351,414.363953 
	C298.765564,410.137878 297.377075,408.205688 293.432892,406.819153 
	C263.290009,396.222748 233.204742,385.461121 203.152359,374.610199 
	C199.606110,373.329803 196.561615,373.554993 193.070450,374.806396 
	C163.456146,385.421539 133.805298,395.936798 104.091797,406.270325 
	C100.451782,407.536224 99.225090,409.277863 99.251343,413.047089 
	C99.399940,434.379211 99.478180,455.714630 99.254868,477.045502 
	C99.126839,489.275116 100.666466,501.263977 103.498405,513.078247 
	C106.718292,526.510986 111.167183,539.492126 119.928268,550.115295 
M195.496704,601.315735 
	C187.027008,600.979919 178.482025,602.087036 170.094009,600.354553 
	C164.303772,599.158691 161.722473,595.706665 162.785995,590.997559 
	C163.968491,585.761597 168.186844,586.103699 171.981262,586.707947 
	C182.260117,588.344727 192.585068,587.344666 202.883743,587.632568 
	C205.217758,587.697876 207.556488,587.620911 208.979385,585.279968 
	C208.561356,583.890198 207.357391,583.631470 206.322220,583.176636 
	C195.961914,578.625366 185.705887,573.814453 175.010086,570.079590 
	C171.746933,568.940063 168.634552,567.261230 164.975845,567.327576 
	C157.647095,567.460571 150.296738,567.096741 142.989944,567.526733 
	C137.115784,567.872437 130.936874,567.608398 126.115280,572.284363 
	C120.496040,577.733887 114.735405,583.043091 108.905792,588.267700 
	C106.605141,590.329651 106.053947,592.166077 108.319443,594.528687 
	C116.964401,603.544128 125.591331,612.576904 134.204483,621.622742 
	C135.959198,623.465637 137.646942,623.672424 139.913193,622.284607 
	C145.065247,619.129639 150.800552,618.446655 156.745148,618.842285 
	C175.018066,620.058289 193.304138,620.852905 211.627289,620.690002 
	C215.326447,620.657043 218.523697,619.709778 221.252274,617.275024 
	C239.405548,601.076782 257.394592,584.711304 272.888611,565.843689 
	C274.586334,563.776306 275.920074,561.500610 276.959473,559.010559 
	C278.168793,556.113403 277.175598,554.286255 274.660065,552.788391 
	C270.243744,550.158813 266.542816,552.014038 263.248993,554.780945 
	C255.343262,561.421997 247.573441,568.226624 239.815155,575.040833 
	C234.067963,580.088623 227.399445,584.413513 223.442703,591.043945 
	C218.636795,599.097351 211.951385,602.114197 202.990051,601.346436 
	C200.839859,601.162231 198.660538,601.318115 195.496704,601.315735 
M243.682663,553.170532 
	C249.781601,548.335327 254.821182,542.104614 262.275909,539.055420 
	C264.456940,538.163330 264.349640,536.541626 264.069031,534.522888 
	C261.827454,518.396545 252.743149,508.542114 237.187729,504.036072 
	C232.622223,502.713531 230.274399,503.381592 228.467865,507.969482 
	C222.862915,522.203735 216.922897,536.306458 211.073349,550.443909 
	C208.960312,555.550781 206.896759,555.947021 201.721802,554.499390 
	C189.233246,551.005981 180.746994,543.919983 178.239944,530.719604 
	C178.057037,529.756531 177.529297,528.858704 177.158676,527.931763 
	C173.837830,519.626587 170.516251,511.321686 167.179276,502.977661 
	C153.398560,504.266571 142.848663,509.437836 137.287628,522.533752 
	C133.488586,531.480286 134.354507,540.790100 134.438339,550.064026 
	C134.461914,552.673035 136.563873,552.638489 138.437668,552.641846 
	C145.262436,552.654053 152.092300,552.813843 158.910767,552.606384 
	C167.249863,552.352600 175.010971,554.264893 182.568802,557.673157 
	C193.485611,562.596069 204.558807,567.172302 215.473663,572.099365 
	C218.294144,573.372620 220.308411,573.169006 222.635361,571.122009 
	C229.380569,565.188538 236.295334,559.447876 243.682663,553.170532 
z"/>
<path fill="#000000" opacity="1.000000" stroke="none" 
	d="
M707.949585,610.694580 
	C707.795471,613.078064 706.977661,614.323547 704.864380,614.295959 
	C700.724731,614.241943 696.563538,614.737610 692.650818,613.989014 
	C691.161133,612.619568 692.127869,610.451660 690.132385,609.079407 
	C685.053162,612.869263 679.401978,615.515320 672.566467,615.455383 
	C655.178528,615.302917 641.796692,602.958923 640.708984,585.503174 
	C640.110291,575.893860 640.847839,566.569885 646.650635,558.276794 
	C654.854065,546.553101 672.899536,540.417053 689.757202,551.693298 
	C691.331055,550.425598 690.644531,548.636169 690.661072,547.109009 
	C690.745789,539.281433 690.824280,531.449768 690.649353,523.625244 
	C690.570068,520.079102 691.613403,518.504761 695.433350,518.601501 
	C710.479858,518.982544 707.851807,516.502075 707.941833,530.776428 
	C708.108765,557.258850 707.981567,583.743103 707.949585,610.694580 
M688.402100,592.770203 
	C691.743774,587.676331 691.180420,581.979797 690.796936,576.367676 
	C690.223389,567.974976 684.746887,562.081665 677.024902,561.280762 
	C667.423523,560.285034 660.951477,564.397583 658.201477,572.983643 
	C657.101318,576.418457 657.277405,579.878296 657.399109,583.335144 
	C657.678894,591.286804 662.298950,597.382812 669.593079,599.745605 
	C676.342407,601.931946 682.852661,599.675476 688.402100,592.770203 
z"/>
<path fill="#000000" opacity="1.000000" stroke="none" 
	d="
M422.388672,447.779297 
	C428.334351,464.208954 434.178833,480.260681 440.365021,497.250854 
	C434.307953,497.250854 429.218750,497.332977 424.134247,497.213745 
	C421.834930,497.159851 421.380859,495.040192 420.754791,493.368805 
	C419.121246,489.007782 417.430084,484.656738 416.081543,480.204895 
	C415.277985,477.552185 413.938629,476.357056 411.135345,476.382904 
	C401.807495,476.468964 392.478088,476.453644 383.149841,476.393463 
	C380.376617,476.375580 378.851990,477.565399 378.171539,480.247955 
	C377.641876,482.335938 376.766083,484.335297 376.059784,486.379456 
	C372.025238,498.055908 367.971313,500.045898 354.806519,496.387451 
	C357.494568,488.721161 360.132050,481.066071 362.860352,473.443481 
	C370.652344,451.673431 378.577209,429.950134 386.208496,408.124084 
	C387.604614,404.131012 389.611816,402.792023 393.795441,402.864227 
	C406.023468,403.075287 406.053467,402.888855 410.347717,414.579865 
	C414.361725,425.507874 418.310181,436.459900 422.388672,447.779297 
M390.284058,446.591278 
	C388.852753,451.408844 386.532471,455.987823 385.657684,461.624420 
	C392.481201,461.624420 398.595215,461.546783 404.706055,461.652893 
	C408.512421,461.718964 409.378540,460.134430 408.167206,456.699310 
	C405.245148,448.412506 402.466797,440.075104 399.571106,431.778839 
	C399.108337,430.453094 398.869171,428.858093 396.681152,428.121460 
	C394.609070,434.053925 392.552612,439.941650 390.284058,446.591278 
z"/>
<path fill="#000000" opacity="1.000000" stroke="none" 
	d="
M416.010071,531.019409 
	C424.566986,541.366455 426.168518,552.689331 421.053955,564.447571 
	C415.924561,576.239868 405.898163,581.138550 393.368835,581.368408 
	C389.704376,581.435669 386.037811,581.391357 382.372223,581.395874 
	C375.360229,581.404480 375.356750,581.403809 375.350067,588.653259 
	C375.343750,595.484619 375.188873,602.320984 375.405823,609.145386 
	C375.526306,612.935669 374.394073,614.527466 370.346558,614.415588 
	C356.183075,614.023865 358.042114,616.243286 357.992401,602.332031 
	C357.903717,577.506287 358.074585,552.679016 357.853455,527.854919 
	C357.809570,522.929321 359.462921,521.482239 364.198364,521.747986 
	C375.656952,522.390991 387.152802,521.114319 398.627686,522.532776 
	C405.376709,523.367004 411.097443,525.833923 416.010071,531.019409 
M399.024567,564.702148 
	C405.416321,560.370605 407.927948,554.917603 406.487000,548.158325 
	C405.240204,542.309814 401.501160,538.511841 395.699341,537.812195 
	C389.950104,537.118958 384.072845,537.457520 378.251190,537.412842 
	C376.470306,537.399170 375.434448,538.459167 375.424103,540.231628 
	C375.378418,548.061890 375.390869,555.892517 375.388000,563.723022 
	C375.387360,565.528259 376.288635,566.632751 378.106049,566.566101 
	C384.870117,566.318359 391.779205,567.918457 399.024567,564.702148 
z"/>
<path fill="#000000" opacity="1.000000" stroke="none" 
	d="
M673.735596,428.745361 
	C687.339478,430.718445 697.311035,436.771088 701.724243,450.053162 
	C703.216797,454.545074 703.345459,459.153015 703.408386,463.831177 
	C703.455566,467.340363 702.099670,468.465424 698.701660,468.430664 
	C686.217834,468.302887 673.731934,468.365204 661.246765,468.386536 
	C655.058044,468.397125 654.118774,469.960083 656.928955,475.425903 
	C661.677856,484.662262 674.448730,487.447235 683.846069,481.426666 
	C686.025452,480.030426 687.445312,476.464569 690.230896,477.275208 
	C694.442749,478.500824 698.620239,480.316345 702.054932,483.231445 
	C695.247437,497.446106 677.337769,501.540924 661.466797,496.924438 
	C645.984558,492.421082 636.263367,475.389465 638.845947,458.062592 
	C641.561279,439.845093 654.722839,428.632202 673.735596,428.745361 
M672.474976,455.991272 
	C677.028992,455.991272 681.582947,455.991272 686.206787,455.991272 
	C684.741089,446.769928 679.680786,442.293884 671.430847,442.398956 
	C663.422180,442.500916 657.287292,447.680023 656.196777,455.991974 
	C661.348083,455.991974 666.416870,455.991974 672.474976,455.991272 
z"/>
<path fill="#000000" opacity="1.000000" stroke="none" 
	d="
M596.417480,546.907471 
	C602.130005,546.176331 607.465210,545.877136 612.709900,546.979126 
	C624.614929,549.480469 631.937866,558.448486 632.217346,571.380554 
	C632.494263,584.197998 632.183533,597.027222 632.319397,609.849243 
	C632.357056,613.405029 630.925842,614.623169 627.567932,614.370361 
	C625.415283,614.208252 623.224487,614.179016 621.078918,614.384644 
	C617.952820,614.684326 615.579468,613.894897 614.495300,609.978271 
	C610.013794,613.045837 605.615723,615.191223 600.637268,616.030273 
	C583.723145,618.880859 570.863525,606.188843 574.674866,590.290161 
	C576.571655,582.377625 582.825867,577.084656 592.400879,575.720215 
	C598.645386,574.830444 604.936340,574.125549 611.230774,573.777344 
	C615.252808,573.554810 616.043762,571.893188 615.184570,568.329895 
	C614.244507,564.431763 612.231689,561.500183 608.284668,560.584961 
	C602.443420,559.230591 596.417175,559.741272 592.796021,564.786133 
	C589.658386,569.157532 587.208801,568.354919 583.385315,566.402222 
	C574.373047,561.799561 574.215454,561.145020 581.874390,554.092468 
	C585.924011,550.363464 590.824829,548.430664 596.417480,546.907471 
M598.866699,602.731567 
	C608.707397,602.622803 615.298645,597.060974 615.632019,588.692566 
	C615.744263,585.874695 614.988831,584.064209 611.753418,584.497192 
	C607.149963,585.113281 602.509949,585.566711 597.966980,586.490112 
	C593.781616,587.340759 590.409119,589.568909 590.420288,594.415222 
	C590.431580,599.318115 593.303772,601.954956 598.866699,602.731567 
z"/>
<path fill="#000000" opacity="1.000000" stroke="none" 
	d="
M916.302368,496.753693 
	C906.535950,500.228729 897.340454,500.626556 888.883362,494.357025 
	C882.242859,489.434204 880.715637,482.326141 881.822571,474.726196 
	C882.827332,467.828156 886.966187,462.954285 893.607788,460.422241 
	C901.347595,457.471497 909.492310,457.063873 917.627258,456.677856 
	C922.603455,456.441772 923.713440,454.998291 922.380981,450.114319 
	C920.243347,442.278961 908.746155,440.251801 901.546997,446.482788 
	C900.552368,447.343567 899.621399,448.366394 898.943115,449.485260 
	C897.616089,451.674103 896.030273,451.865967 893.910034,450.701935 
	C892.162720,449.742554 890.296692,449.001648 888.498657,448.132080 
	C882.890320,445.419983 882.722656,444.697327 886.546631,439.934570 
	C896.039185,428.111389 918.061340,425.123535 930.214539,434.095520 
	C936.267578,438.563995 939.105896,444.936157 939.257446,452.213287 
	C939.538147,465.698364 939.268921,479.194061 939.389709,492.683868 
	C939.419678,496.026642 938.436096,497.720947 934.853821,497.385559 
	C933.037842,497.215515 931.188110,497.280609 929.361328,497.380432 
	C926.168884,497.554932 923.243713,497.400879 922.982727,493.203979 
	C920.119934,493.474243 918.865967,495.915100 916.302368,496.753693 
M900.981506,471.392090 
	C896.442688,476.339539 896.794006,481.953949 902.165039,484.510864 
	C907.378174,486.992615 912.576721,485.955536 917.278503,482.824371 
	C921.745422,479.849609 923.032837,475.351624 922.814209,470.233429 
	C922.721924,468.072784 921.467896,467.153625 919.552917,467.475464 
	C913.544739,468.485199 907.229797,467.975342 900.981506,471.392090 
z"/>
<path fill="#000000" opacity="1.000000" stroke="none" 
	d="
M775.316956,604.957031 
	C775.201904,615.189514 776.224548,614.389282 766.466431,614.289490 
	C763.426514,614.258423 760.003479,615.597839 757.801575,611.447693 
	C756.904419,609.756714 754.595276,611.970093 753.088867,612.854919 
	C744.192749,618.080688 731.054993,617.224426 723.947144,611.085205 
	C716.963440,605.053284 716.259705,597.186157 718.204102,589.140991 
	C720.328064,580.353210 727.651611,577.087830 735.739685,575.736267 
	C741.952698,574.698059 748.266418,574.136353 754.559143,573.749573 
	C758.367432,573.515442 759.021606,571.825745 758.280579,568.549927 
	C757.408081,564.692993 755.592896,561.568909 751.612366,560.594604 
	C746.010681,559.223694 739.854004,559.293762 736.446472,564.182800 
	C732.629639,569.658997 729.311157,568.468567 725.006897,565.820557 
	C723.184509,564.699463 721.196106,563.848267 719.123108,562.792908 
	C719.616699,559.055481 721.870544,556.563293 724.398621,554.525452 
	C735.628845,545.472900 748.237549,543.906128 761.433167,549.067627 
	C772.082336,553.233154 774.975647,562.631653 775.246399,572.986877 
	C775.520508,583.472351 775.313293,593.970398 775.316956,604.957031 
M755.972534,596.364929 
	C757.534729,593.760071 758.495850,590.964844 758.619080,587.911743 
	C758.694885,586.035034 758.131470,584.282349 755.969299,584.550842 
	C749.900574,585.304443 743.629944,585.065430 737.875854,587.554871 
	C734.196350,589.146729 732.737183,592.210815 733.424683,596.102112 
	C734.107056,599.964233 736.487244,602.226318 740.466736,602.711426 
	C746.515137,603.448853 751.650330,601.821289 755.972534,596.364929 
z"/>
<path fill="#000000" opacity="1.000000" stroke="none" 
	d="
M713.662476,483.990295 
	C713.662048,467.667908 713.774475,451.842926 713.584778,436.021576 
	C713.535645,431.925964 714.793701,430.149841 718.968079,430.619690 
	C720.777466,430.823334 722.632202,430.728638 724.460083,430.640015 
	C727.660950,430.484741 730.580933,430.674347 730.787598,435.247620 
	C734.884216,433.650116 737.785278,430.763153 741.665894,429.722900 
	C759.470825,424.949890 773.590393,435.366791 774.179321,454.285553 
	C774.578125,467.098572 774.193665,479.934540 774.308655,492.758881 
	C774.339417,496.190063 773.081726,497.469757 769.616394,497.401642 
	C755.448303,497.123138 757.864807,499.076599 757.674194,486.106964 
	C757.544495,477.280945 757.684814,468.451324 757.638428,459.623657 
	C757.587769,449.986664 752.711304,443.855377 744.918335,443.508057 
	C737.178223,443.163086 730.558960,450.227905 730.395996,459.461853 
	C730.204895,470.285248 730.206543,481.116882 730.403931,491.939819 
	C730.477356,495.965027 729.286133,497.569244 725.043213,497.441925 
	C711.795166,497.044373 713.898926,499.073669 713.664551,485.988251 
	C713.655640,485.488678 713.663025,484.988800 713.662476,483.990295 
z"/>
<path fill="#000000" opacity="1.000000" stroke="none" 
	d="
M784.717285,453.157166 
	C789.718445,437.943726 801.162048,429.187897 816.227905,428.686768 
	C830.000183,428.228668 842.009277,435.610626 847.081665,448.021515 
	C842.598328,450.708374 837.521240,452.051147 832.455566,454.217285 
	C828.817627,447.724701 823.956970,443.782135 816.325012,444.175415 
	C812.454468,444.374847 809.014465,445.531158 806.296875,448.036438 
	C799.344299,454.445831 799.045532,462.803558 800.990845,471.143707 
	C802.843079,479.085266 808.669250,483.619263 816.676819,484.362793 
	C822.809448,484.932251 828.123352,482.283936 831.711426,477.152130 
	C833.568054,474.496582 835.228210,473.638977 838.204285,475.383331 
	C841.303650,477.199951 845.189331,477.540955 848.154297,480.539032 
	C843.787109,489.428680 837.041260,495.316467 827.389343,497.638580 
	C808.434937,502.198822 788.860168,493.978149 784.239441,472.354034 
	C782.923035,466.193451 783.041260,459.801819 784.717285,453.157166 
z"/>
<path fill="#000000" opacity="1.000000" stroke="none" 
	d="
M444.224304,480.708008 
	C446.209351,479.853760 448.008453,479.400330 449.619568,478.578430 
	C454.146301,476.269196 457.315735,476.438629 460.691864,481.272949 
	C463.820770,485.753235 469.276093,486.609192 474.734680,484.734070 
	C477.765656,483.692841 480.251678,482.006287 480.531219,478.598816 
	C480.827362,474.988617 478.203949,473.289368 475.298553,472.121948 
	C469.125458,469.641541 462.418274,468.842651 456.328125,466.033142 
	C449.481232,462.874481 446.330322,457.185822 446.121063,450.130920 
	C445.921631,443.407410 448.136810,437.333588 454.212250,433.385010 
	C462.473175,428.016052 471.347229,427.458649 480.559113,430.187805 
	C486.920288,432.072418 491.753479,435.814209 494.591156,442.032227 
	C495.786713,444.651978 495.290802,446.077850 492.602509,446.919281 
	C491.017334,447.415466 489.382294,447.870758 487.927521,448.642151 
	C484.054993,450.695648 481.155304,451.072235 478.760010,446.200806 
	C477.232697,443.094666 473.459808,442.270935 469.991394,442.492462 
	C466.269592,442.730164 463.000458,444.098724 462.406219,448.326782 
	C461.836578,452.379883 464.802856,453.843384 468.000458,454.774506 
	C471.828766,455.889282 475.717407,456.795074 479.558533,457.868011 
	C491.215393,461.124237 496.507690,467.753021 496.331207,478.803894 
	C496.176605,488.483795 490.350250,495.205627 479.042084,497.770142 
	C467.547577,500.376923 456.780304,498.750763 448.121765,489.986908 
	C445.786591,487.623322 443.034607,485.006897 444.224304,480.708008 
z"/>
<path fill="#000000" opacity="1.000000" stroke="none" 
	d="
M564.193481,429.348816 
	C573.771790,431.035248 579.919312,436.105621 583.095093,445.144928 
	C579.401794,447.957733 575.052917,448.626709 571.135315,450.222961 
	C569.128906,451.040558 568.414917,449.323151 567.438721,447.844025 
	C563.685669,442.157471 557.137146,440.722382 552.370972,444.334290 
	C548.275024,447.438263 548.461975,451.335175 552.971985,453.827332 
	C556.952087,456.026642 561.496582,456.531677 565.818420,457.687744 
	C571.204895,459.128601 576.309753,461.113556 579.978882,465.546661 
	C587.099243,474.149780 585.011169,487.827179 575.694641,494.185059 
	C563.812195,502.293823 544.395508,499.845062 534.976624,489.063629 
	C533.089478,486.903473 531.613586,484.543762 530.944580,481.346680 
	C534.505371,478.916412 538.674500,477.900848 542.786743,476.871002 
	C545.143677,476.280762 545.693848,478.683228 546.776917,480.013153 
	C550.732361,484.870361 556.131104,486.599823 561.904785,484.867493 
	C565.161255,483.890411 567.989380,482.186249 568.264465,478.650146 
	C568.553467,474.933777 565.669434,473.070068 562.506348,472.054016 
	C556.973999,470.276825 551.293884,468.933563 545.828674,466.980225 
	C538.633850,464.408752 534.302673,459.276398 533.693665,451.452759 
	C533.041138,443.070404 536.021545,436.394379 543.495728,432.211639 
	C549.822937,428.670837 556.661377,427.799286 564.193481,429.348816 
z"/>
<path fill="#000000" opacity="1.000000" stroke="none" 
	d="
M542.984619,587.022644 
	C547.274719,575.263611 551.574951,563.900940 555.481445,552.404541 
	C556.711243,548.785461 558.497620,547.283630 562.293579,547.567078 
	C565.913452,547.837280 569.569336,547.625244 573.030029,547.625244 
	C574.003540,549.882812 573.014343,551.334595 572.433777,552.829895 
	C565.086609,571.752258 557.642700,590.637756 550.441345,609.615295 
	C549.110229,613.122986 547.331299,614.566956 543.514343,614.413574 
	C528.608032,613.814514 532.557922,617.050415 527.169373,603.260925 
	C520.448181,586.061523 513.971191,568.766663 507.402283,551.507935 
	C507.059601,550.607544 506.843018,549.659180 506.358002,548.027466 
	C511.792206,547.356689 516.868469,547.418701 521.897095,547.906677 
	C524.210815,548.131226 524.561340,550.659119 525.243225,552.482178 
	C529.613464,564.166809 533.926941,575.872681 538.276062,587.565247 
	C538.890259,589.216553 539.596252,590.833801 540.633911,593.387634 
	C541.608765,590.730347 542.225647,589.048828 542.984619,587.022644 
z"/>
<path fill="#000000" opacity="1.000000" stroke="none" 
	d="
M600.226562,414.582581 
	C605.591492,412.908325 610.684998,411.477875 616.925598,411.476471 
	C616.925598,416.102722 617.108765,420.529358 616.873047,424.933594 
	C616.647095,429.155518 618.044189,431.246765 622.550293,430.691010 
	C624.354248,430.468536 626.227722,430.828644 628.037354,430.629974 
	C632.233154,430.169373 633.486938,432.008362 633.424072,436.072601 
	C633.296448,444.331207 633.487427,444.334167 624.938660,444.353729 
	C616.889282,444.372131 616.910645,444.372070 616.932495,452.221497 
	C616.950562,458.715637 617.033630,465.213104 616.867920,471.703461 
	C616.604370,482.027740 618.885803,484.206360 628.971252,482.935669 
	C629.764282,482.835754 630.595398,483.038452 631.569824,483.112762 
	C632.903870,487.083374 632.249023,491.079102 632.164734,495.015015 
	C632.115662,497.306824 630.298523,498.089844 628.371887,498.211182 
	C622.378723,498.588715 616.379395,498.693604 610.638855,496.493042 
	C601.835999,493.118561 600.118286,485.449799 599.768799,477.421570 
	C599.370850,468.279510 599.526550,459.105072 599.708130,449.949982 
	C599.785522,446.052002 598.800903,443.782501 594.446289,444.344025 
	C590.723938,444.824097 589.223145,443.156189 589.632080,439.484558 
	C589.778625,438.168671 589.779419,436.808960 589.632324,435.493195 
	C589.219482,431.801666 590.764343,430.206879 594.466919,430.639404 
	C598.369812,431.095306 599.862366,429.281799 599.701721,425.424805 
	C599.556885,421.946899 599.867126,418.450073 600.226562,414.582581 
z"/>
<path fill="#000000" opacity="1.000000" stroke="none" 
	d="
M449.350708,592.048340 
	C449.342224,598.530518 449.271271,604.521240 449.352539,610.509949 
	C449.389862,613.259644 448.259460,614.378784 445.504211,614.354614 
	C430.183350,614.220276 433.046448,616.026978 432.908142,602.750671 
	C432.736542,586.280029 432.980865,569.804993 432.793304,553.334717 
	C432.745026,549.095581 433.886780,547.095520 438.407898,547.586609 
	C441.836426,547.959106 445.359436,547.243347 448.859192,548.184753 
	C449.168243,550.106689 449.447815,551.845337 449.863586,554.431030 
	C454.730255,549.418152 459.990845,546.749268 466.413696,546.323059 
	C472.956207,545.889038 473.699402,546.378113 473.418518,552.699280 
	C473.270996,556.019104 473.234131,559.343872 473.111847,562.665039 
	C473.100891,562.962402 472.828400,563.250122 472.565613,563.758606 
	C471.359039,563.614746 470.020569,563.637390 468.792816,563.279968 
	C459.251862,560.502380 452.109985,567.325073 450.432220,576.672852 
	C449.551666,581.579041 449.031006,586.545959 449.350708,592.048340 
z"/>
<path fill="#000000" opacity="1.000000" stroke="none" 
	d="
M506.652435,478.999023 
	C506.653625,464.347015 506.776276,450.193024 506.580780,436.043457 
	C506.524475,431.967468 507.761841,430.466858 511.948242,430.580872 
	C525.576355,430.952179 523.144287,429.006500 523.253540,441.954102 
	C523.394104,458.602539 523.177429,475.254059 523.321594,491.902405 
	C523.356140,495.892456 522.230896,497.559174 517.968384,497.438141 
	C504.597473,497.058380 506.921021,498.929474 506.665100,486.491547 
	C506.617157,484.161499 506.654755,481.829712 506.652435,478.999023 
z"/>
<path fill="#000000" opacity="1.000000" stroke="none" 
	d="
M490.024902,547.634033 
	C500.244293,547.746216 499.239166,546.671265 499.270111,556.553955 
	C499.324310,573.862305 499.146484,591.172668 499.362762,608.478455 
	C499.420105,613.064331 497.951569,614.580566 493.373077,614.432678 
	C480.858032,614.028381 482.759338,615.725952 482.680206,603.869141 
	C482.570282,587.393433 482.643127,570.916443 482.656342,554.440002 
	C482.661713,547.715393 482.683868,547.715393 490.024902,547.634033 
z"/>
<path fill="#000000" opacity="1.000000" stroke="none" 
	d="
M854.661743,448.001495 
	C854.670288,443.168640 854.761108,438.833557 854.658691,434.503082 
	C854.592834,431.720703 855.818359,430.815521 858.517578,430.620361 
	C871.351318,429.692291 871.348022,429.625946 871.347351,442.507507 
	C871.346497,459.006989 871.236267,475.507599 871.415466,492.005096 
	C871.459961,496.105682 870.184753,497.556152 866.012756,497.438171 
	C852.583191,497.058533 854.837219,499.049652 854.697388,485.999725 
	C854.563538,473.501526 854.664368,461.000824 854.661743,448.001495 
z"/>
<path fill="#000000" opacity="1.000000" stroke="none" 
	d="
M483.626862,522.633789 
	C489.270996,518.994141 493.497498,518.695312 497.142700,521.866577 
	C500.633118,524.903076 502.316620,528.700684 500.535034,533.397766 
	C498.305634,539.275513 492.531708,541.876404 486.862061,539.561096 
	C481.632263,537.425415 479.249268,531.356079 481.553436,525.866089 
	C481.994843,524.814392 482.731689,523.886597 483.626862,522.633789 
z"/>
<path fill="#000000" opacity="1.000000" stroke="none" 
	d="
M853.260742,410.681702 
	C856.416992,403.634338 861.900635,401.288666 867.770569,404.153076 
	C872.758118,406.586884 874.789124,413.173431 872.122192,418.265350 
	C869.947998,422.416504 865.104980,424.394562 860.183777,423.141541 
	C855.241211,421.883026 852.688904,417.510986 853.260742,410.681702 
z"/>
<path fill="#000000" opacity="1.000000" stroke="none" 
	d="
M505.429749,409.885193 
	C509.124542,402.984070 514.663818,401.107025 520.315125,404.520264 
	C524.937195,407.311920 526.401367,413.681030 523.522217,418.470764 
	C520.542786,423.427277 513.929138,425.002716 509.232697,421.608215 
	C505.392395,418.832550 503.895966,414.982605 505.429749,409.885193 
z"/>
<path fill="#000000" opacity="1.000000" stroke="none" 
	d="
M230.173340,469.075104 
	C219.251495,483.595917 202.582642,489.256927 186.692688,484.071320 
	C170.637314,478.831665 159.032867,462.370544 158.563797,445.318176 
	C158.137344,429.815826 162.760849,416.632233 175.193588,407.105560 
	C195.629120,391.446594 224.220413,398.999603 234.439056,422.713226 
	C241.301529,438.638519 240.134460,454.163727 230.173340,469.075104 
M181.922516,421.392822 
	C174.499634,428.365631 172.387589,437.124207 173.371765,446.908600 
	C174.822342,461.329742 189.756104,472.406738 203.429535,469.220459 
	C214.135254,466.725800 222.046829,458.904510 223.522903,448.722382 
	C225.269119,436.676788 222.551254,426.100555 211.851959,418.919006 
	C203.280945,413.165985 192.327774,414.048340 181.922516,421.392822 
z"/>
</svg>